<mxfile host="65bd71144e">
    <diagram id="iV5IyZXOkD-sgXpnqpRk" name="Страница 1">
        <mxGraphModel dx="433" dy="316" grid="1" gridSize="10" guides="1" tooltips="1" connect="1" arrows="1" fold="1" page="1" pageScale="1" pageWidth="827" pageHeight="1169" math="0" shadow="0">
            <root>
                <mxCell id="0"/>
                <mxCell id="1" parent="0"/>
                <mxCell id="6" value="" style="edgeStyle=none;html=1;" edge="1" parent="1" target="4">
                    <mxGeometry relative="1" as="geometry">
                        <mxPoint x="320" y="61" as="sourcePoint"/>
                    </mxGeometry>
                </mxCell>
                <mxCell id="3" value="firstArray = [...]" style="shape=parallelogram;perimeter=parallelogramPerimeter;whiteSpace=wrap;html=1;fixedSize=1;" vertex="1" parent="1">
                    <mxGeometry x="260" y="81" width="120" height="30" as="geometry"/>
                </mxCell>
                <mxCell id="7" value="" style="edgeStyle=none;html=1;" edge="1" parent="1" source="4" target="5">
                    <mxGeometry relative="1" as="geometry"/>
                </mxCell>
                <mxCell id="4" value="i = 0&lt;br&gt;count = 0" style="rounded=0;whiteSpace=wrap;html=1;" vertex="1" parent="1">
                    <mxGeometry x="260" y="134" width="120" height="30" as="geometry"/>
                </mxCell>
                <mxCell id="9" value="да" style="edgeStyle=none;html=1;" edge="1" parent="1" source="5" target="8">
                    <mxGeometry relative="1" as="geometry"/>
                </mxCell>
                <mxCell id="18" value="нет" style="edgeStyle=none;html=1;entryX=1;entryY=0.5;entryDx=0;entryDy=0;exitX=1;exitY=0.5;exitDx=0;exitDy=0;" edge="1" parent="1" source="5" target="19">
                    <mxGeometry relative="1" as="geometry">
                        <Array as="points">
                            <mxPoint x="480" y="217"/>
                            <mxPoint x="480" y="320"/>
                            <mxPoint x="480" y="407"/>
                            <mxPoint x="480" y="460"/>
                        </Array>
                    </mxGeometry>
                </mxCell>
                <mxCell id="5" value="i &amp;lt; array.Length" style="rhombus;whiteSpace=wrap;html=1;" vertex="1" parent="1">
                    <mxGeometry x="240" y="187" width="160" height="60" as="geometry"/>
                </mxCell>
                <mxCell id="16" value="да" style="edgeStyle=none;html=1;" edge="1" parent="1" source="8" target="10">
                    <mxGeometry relative="1" as="geometry"/>
                </mxCell>
                <mxCell id="20" value="нет" style="edgeStyle=none;html=1;entryX=1;entryY=0.5;entryDx=0;entryDy=0;" edge="1" parent="1" source="8" target="11">
                    <mxGeometry relative="1" as="geometry">
                        <Array as="points">
                            <mxPoint x="440" y="302"/>
                            <mxPoint x="440" y="407"/>
                        </Array>
                    </mxGeometry>
                </mxCell>
                <mxCell id="8" value="array [ i ].Length &amp;lt;= 3" style="rhombus;whiteSpace=wrap;html=1;" vertex="1" parent="1">
                    <mxGeometry x="240" y="272" width="160" height="60" as="geometry"/>
                </mxCell>
                <mxCell id="17" value="" style="edgeStyle=none;html=1;" edge="1" parent="1" source="10" target="11">
                    <mxGeometry relative="1" as="geometry"/>
                </mxCell>
                <mxCell id="10" value="&lt;font style=&quot;font-size: 8px&quot;&gt;count = count + 1&lt;/font&gt;" style="rounded=0;whiteSpace=wrap;html=1;" vertex="1" parent="1">
                    <mxGeometry x="260" y="350" width="120" height="25" as="geometry"/>
                </mxCell>
                <mxCell id="21" style="edgeStyle=none;html=1;entryX=0;entryY=0.5;entryDx=0;entryDy=0;" edge="1" parent="1" source="11" target="5">
                    <mxGeometry relative="1" as="geometry">
                        <Array as="points">
                            <mxPoint x="160" y="407"/>
                            <mxPoint x="160" y="320"/>
                            <mxPoint x="160" y="217"/>
                        </Array>
                    </mxGeometry>
                </mxCell>
                <mxCell id="11" value="&lt;font style=&quot;font-size: 8px&quot;&gt;i = i + 1&lt;/font&gt;" style="rounded=0;whiteSpace=wrap;html=1;" vertex="1" parent="1">
                    <mxGeometry x="260" y="396" width="120" height="22" as="geometry"/>
                </mxCell>
                <mxCell id="33" value="" style="edgeStyle=none;html=1;fontSize=8;" edge="1" parent="1" source="19" target="29">
                    <mxGeometry relative="1" as="geometry"/>
                </mxCell>
                <mxCell id="19" value="&lt;font style=&quot;font-size: 8px&quot;&gt;Create SecondArray = [ count ]&lt;/font&gt;&lt;br&gt;&lt;font style=&quot;font-size: 8px&quot;&gt;j = 0&lt;br&gt;i = 0&lt;/font&gt;" style="rounded=0;whiteSpace=wrap;html=1;" vertex="1" parent="1">
                    <mxGeometry x="260" y="440" width="120" height="40" as="geometry"/>
                </mxCell>
                <mxCell id="22" value="&lt;font style=&quot;font-size: 8px&quot;&gt;Начало&lt;/font&gt;" style="ellipse;whiteSpace=wrap;html=1;" vertex="1" parent="1">
                    <mxGeometry x="260" y="20" width="120" height="41" as="geometry"/>
                </mxCell>
                <mxCell id="23" value="&lt;font style=&quot;font-size: 8px&quot;&gt;firstArray = [...]&lt;/font&gt;" style="shape=parallelogram;perimeter=parallelogramPerimeter;whiteSpace=wrap;html=1;fixedSize=1;" vertex="1" parent="1">
                    <mxGeometry x="260" y="81" width="120" height="30" as="geometry"/>
                </mxCell>
                <mxCell id="24" value="&lt;font style=&quot;font-size: 8px&quot;&gt;i = 0&lt;br&gt;count = 0&lt;/font&gt;" style="rounded=0;whiteSpace=wrap;html=1;" vertex="1" parent="1">
                    <mxGeometry x="260" y="134" width="120" height="30" as="geometry"/>
                </mxCell>
                <mxCell id="25" value="&lt;font style=&quot;font-size: 8px&quot;&gt;i &amp;lt; firstArray.Length&lt;/font&gt;" style="rhombus;whiteSpace=wrap;html=1;" vertex="1" parent="1">
                    <mxGeometry x="240" y="187" width="160" height="60" as="geometry"/>
                </mxCell>
                <mxCell id="26" value="&lt;font style=&quot;font-size: 8px&quot;&gt;firstArray [ i ].Length &amp;lt;= 3&lt;/font&gt;" style="rhombus;whiteSpace=wrap;html=1;" vertex="1" parent="1">
                    <mxGeometry x="240" y="272" width="160" height="60" as="geometry"/>
                </mxCell>
                <mxCell id="37" value="" style="edgeStyle=none;html=1;fontSize=8;" edge="1" parent="1" source="27" target="28">
                    <mxGeometry relative="1" as="geometry"/>
                </mxCell>
                <mxCell id="27" value="&lt;font style=&quot;font-size: 8px&quot;&gt;secondArray [ j ] = firstArray [ i ]&lt;/font&gt;" style="rounded=0;whiteSpace=wrap;html=1;" vertex="1" parent="1">
                    <mxGeometry x="260" y="665" width="120" height="25" as="geometry"/>
                </mxCell>
                <mxCell id="28" value="&lt;font style=&quot;font-size: 8px&quot;&gt;i = i + 1&lt;/font&gt;" style="rounded=0;whiteSpace=wrap;html=1;" vertex="1" parent="1">
                    <mxGeometry x="260" y="710" width="120" height="22" as="geometry"/>
                </mxCell>
                <mxCell id="34" value="да" style="edgeStyle=none;html=1;fontSize=8;" edge="1" parent="1" source="29" target="30">
                    <mxGeometry relative="1" as="geometry"/>
                </mxCell>
                <mxCell id="42" value="нет" style="edgeStyle=none;html=1;entryX=1;entryY=0.5;entryDx=0;entryDy=0;fontSize=8;" edge="1" parent="1" source="29" target="38">
                    <mxGeometry relative="1" as="geometry">
                        <Array as="points">
                            <mxPoint x="480" y="532"/>
                            <mxPoint x="480" y="640"/>
                            <mxPoint x="480" y="775"/>
                        </Array>
                    </mxGeometry>
                </mxCell>
                <mxCell id="29" value="&lt;font style=&quot;font-size: 8px&quot;&gt;i &amp;lt; firstArray.Length&lt;/font&gt;" style="rhombus;whiteSpace=wrap;html=1;" vertex="1" parent="1">
                    <mxGeometry x="240" y="502" width="160" height="60" as="geometry"/>
                </mxCell>
                <mxCell id="36" value="да" style="edgeStyle=none;html=1;fontSize=8;" edge="1" parent="1" source="30" target="27">
                    <mxGeometry relative="1" as="geometry"/>
                </mxCell>
                <mxCell id="43" value="нет" style="edgeStyle=none;html=1;entryX=1;entryY=0.5;entryDx=0;entryDy=0;fontSize=8;" edge="1" parent="1" source="30" target="28">
                    <mxGeometry relative="1" as="geometry">
                        <Array as="points">
                            <mxPoint x="440" y="615"/>
                            <mxPoint x="440" y="660"/>
                            <mxPoint x="440" y="721"/>
                        </Array>
                    </mxGeometry>
                </mxCell>
                <mxCell id="30" value="&lt;font style=&quot;font-size: 8px&quot;&gt;firstArray [ i ].Length &amp;lt;= 3&lt;/font&gt;" style="rhombus;whiteSpace=wrap;html=1;" vertex="1" parent="1">
                    <mxGeometry x="240" y="585" width="160" height="60" as="geometry"/>
                </mxCell>
                <mxCell id="41" value="" style="edgeStyle=none;html=1;fontSize=8;" edge="1" parent="1" source="38" target="40">
                    <mxGeometry relative="1" as="geometry"/>
                </mxCell>
                <mxCell id="44" style="edgeStyle=none;html=1;entryX=0;entryY=0.5;entryDx=0;entryDy=0;fontSize=8;exitX=0;exitY=0.5;exitDx=0;exitDy=0;" edge="1" parent="1" source="28" target="29">
                    <mxGeometry relative="1" as="geometry">
                        <Array as="points">
                            <mxPoint x="160" y="721"/>
                            <mxPoint x="160" y="680"/>
                            <mxPoint x="160" y="615"/>
                            <mxPoint x="160" y="532"/>
                        </Array>
                    </mxGeometry>
                </mxCell>
                <mxCell id="38" value="secondArray" style="shape=parallelogram;perimeter=parallelogramPerimeter;whiteSpace=wrap;html=1;fixedSize=1;fontSize=8;" vertex="1" parent="1">
                    <mxGeometry x="260" y="760" width="120" height="30" as="geometry"/>
                </mxCell>
                <mxCell id="40" value="&lt;font style=&quot;font-size: 8px&quot;&gt;Конец&lt;/font&gt;" style="ellipse;whiteSpace=wrap;html=1;" vertex="1" parent="1">
                    <mxGeometry x="260" y="810" width="120" height="41" as="geometry"/>
                </mxCell>
            </root>
        </mxGraphModel>
    </diagram>
</mxfile>